<svg xmlns="http://www.w3.org/2000/svg" width="42" height="42" viewBox="0 0 42 42">
  <g id="Group_411" data-name="Group 411" transform="translate(-29 -88)">
    <g id="Rectangle_116" data-name="Rectangle 116" transform="translate(29 88)" fill="#fff" stroke="#9c9c9c" stroke-width="1">
      <rect width="42" height="42" rx="10" stroke="none"/>
      <rect x="0.5" y="0.5" width="41" height="41" rx="9.5" fill="none"/>
    </g>
    <path id="Icon_material-format-list-bulleted" data-name="Icon material-format-list-bulleted" d="M5.534,13.885a1.784,1.784,0,1,0,1.784,1.784A1.781,1.781,0,0,0,5.534,13.885Zm0-7.135A1.784,1.784,0,1,0,7.318,8.534,1.781,1.781,0,0,0,5.534,6.75Zm0,14.27A1.784,1.784,0,1,0,7.318,22.8,1.789,1.789,0,0,0,5.534,21.02ZM9.1,23.993H25.75V21.615H9.1Zm0-7.135H25.75V14.48H9.1Zm0-9.514V9.723H25.75V7.345Z" transform="translate(35.25 93.332)" fill="#9c9c9c"/>
  </g>
</svg>
